<svg width="12" height="13" viewBox="0 0 12 13" fill="none" xmlns="http://www.w3.org/2000/svg">
<path d="M1.78087 6.20864C1.43586 5.77738 0.806567 5.70745 0.375305 6.05246C-0.055957 6.39747 -0.125878 7.02677 0.219131 7.45803L1.78087 6.20864ZM4.33333 11L3.55246 11.6247L4.40679 12.6926L5.16538 11.5547L4.33333 11ZM11.8321 1.5547C12.1384 1.09517 12.0142 0.474302 11.5547 0.16795C11.0952 -0.138403 10.4743 -0.0142289 10.1679 0.4453L11.8321 1.5547ZM0.219131 7.45803L3.55246 11.6247L5.1142 10.3753L1.78087 6.20864L0.219131 7.45803ZM5.16538 11.5547L11.8321 1.5547L10.1679 0.4453L3.50128 10.4453L5.16538 11.5547Z" fill="#5453E3"/>
</svg>
