<svg width="16" height="17" viewBox="0 0 16 17" fill="none" xmlns="http://www.w3.org/2000/svg">
<path d="M14.5564 11.2357L8.89139 15.0096C8.64721 15.2269 8.33178 15.3469 8.00497 15.3469C7.67816 15.3469 7.36273 15.2269 7.11856 15.0096L1.44821 11.2357C1.30802 11.1103 1.19594 10.9567 1.11932 10.7849C1.04271 10.6131 1.00329 10.4271 1.00366 10.239L1.00372 2.01304C1.00401 1.88475 1.0413 1.75926 1.11112 1.65164C1.18094 1.54401 1.28033 1.45881 1.39736 1.40625C1.51439 1.35369 1.6441 1.33601 1.77093 1.35533C1.89776 1.37465 2.01633 1.43014 2.11241 1.51515L7.11371 5.00972C7.35788 5.22694 7.67331 5.34694 8.00012 5.34694C8.32693 5.34694 8.64236 5.22694 8.88654 5.00972L13.8914 1.51515C13.9875 1.42986 14.1061 1.37412 14.2331 1.35465C14.3601 1.33517 14.49 1.35279 14.6072 1.40538C14.7244 1.45797 14.8239 1.54329 14.8938 1.6511C14.9636 1.7589 15.0009 1.88458 15.001 2.01304L15.0009 10.2426C15.0008 10.4301 14.9612 10.6154 14.8846 10.7865C14.808 10.9577 14.6961 11.1107 14.5564 11.2357Z" stroke="#183137" stroke-width="2" stroke-miterlimit="10" stroke-linecap="round" stroke-linejoin="round"/>
</svg>
