<svg width="13" height="17" viewBox="0 0 13 17" fill="none" xmlns="http://www.w3.org/2000/svg">
<path d="M7.21924 1.4385C7.09118 1.36714 6.94447 1.33633 6.79853 1.35017C6.65258 1.36401 6.51427 1.42183 6.4019 1.516C6.28954 1.61016 6.20841 1.73622 6.16925 1.87749C6.1301 2.01877 6.13476 2.16861 6.18263 2.30718C6.45057 3.12068 6.54814 3.98065 6.46926 4.8335C6.39038 5.68636 6.13675 6.51384 5.72416 7.26441C5.19209 7.30547 4.66429 7.14292 4.24751 6.80963C3.83073 6.47635 3.55608 5.99722 3.47912 5.46915C2.6824 5.9044 2.0267 6.5583 1.58927 7.35382C1.15184 8.14934 0.950906 9.05331 1.01015 9.95923C1.01015 11.3881 1.57779 12.7585 2.58818 13.7689C3.59857 14.7793 4.96895 15.3469 6.39786 15.3469C7.82071 15.3275 9.17981 14.7536 10.186 13.7474C11.1922 12.7412 11.7661 11.3821 11.7856 9.95923C11.947 8.24728 11.5998 6.52575 10.7876 5.01014C9.97534 3.49452 8.73411 2.25214 7.21924 1.4385V1.4385Z" stroke="#183137" stroke-width="2" stroke-miterlimit="10" stroke-linecap="round" stroke-linejoin="round"/>
</svg>
